<?xml version="1.0" encoding="UTF-8" standalone="no"?>
<svg
   xmlns:dc="http://purl.org/dc/elements/1.1/"
   xmlns:cc="http://creativecommons.org/ns#"
   xmlns:rdf="http://www.w3.org/1999/02/22-rdf-syntax-ns#"
   xmlns:svg="http://www.w3.org/2000/svg"
   xmlns="http://www.w3.org/2000/svg"
   xmlns:sodipodi="http://sodipodi.sourceforge.net/DTD/sodipodi-0.dtd"
   xmlns:inkscape="http://www.inkscape.org/namespaces/inkscape"
   inkscape:export-ydpi="96"
   inkscape:export-xdpi="96"
   inkscape:export-filename="C:\Users\salaw\PycharmProjects\entrenador_electronico\entrenador_electronico\qt_gui\content\icons\inductor.png"
   sodipodi:docname="inductor.svg"
   inkscape:version="1.0 (4035a4fb49, 2020-05-01)"
   id="svg42"
   version="1.1"
   viewBox="0 0 31.749601 10.583199"
   height="40"
   width="120">
  <defs
     id="defs36">
    <pattern
       id="EMFhbasepattern"
       patternUnits="userSpaceOnUse"
       width="6"
       height="6"
       x="0"
       y="0" />
  </defs>
  <sodipodi:namedview
     showguides="true"
     inkscape:window-maximized="1"
     inkscape:window-y="-8"
     inkscape:window-x="-8"
     inkscape:window-height="837"
     inkscape:window-width="1600"
     units="px"
     showgrid="false"
     inkscape:document-rotation="0"
     inkscape:current-layer="layer1"
     inkscape:document-units="px"
     inkscape:cy="9.4706269"
     inkscape:cx="59.23277"
     inkscape:zoom="7.9195959"
     inkscape:pageshadow="2"
     inkscape:pageopacity="0.0"
     borderopacity="1.0"
     bordercolor="#666666"
     pagecolor="#ffffff"
     id="base">
    <inkscape:grid
       id="grid44"
       type="xygrid" />
  </sodipodi:namedview>
  <metadata
     id="metadata39">
    <rdf:RDF>
      <cc:Work
         rdf:about="">
        <dc:format>image/svg+xml</dc:format>
        <dc:type
           rdf:resource="http://purl.org/dc/dcmitype/StillImage" />
        <dc:title></dc:title>
      </cc:Work>
    </rdf:RDF>
  </metadata>
  <g
     id="layer1"
     inkscape:groupmode="layer"
     inkscape:label="Capa 1">
    <path
       id="path46"
       d="M 7.9373997,5.2915998 H 0"
       style="fill:none;stroke:#000000;stroke-width:0.458266;stroke-linecap:butt;stroke-linejoin:round;stroke-miterlimit:4;stroke-dasharray:none;stroke-opacity:1" />
    <path
       id="path48"
       d="m 31.749599,5.2915998 h -6.6145 v 0"
       style="fill:none;stroke:#000000;stroke-width:0.418338;stroke-linecap:butt;stroke-linejoin:round;stroke-miterlimit:4;stroke-dasharray:none;stroke-opacity:1" />
    <rect
       y="5.2915998"
       x="6.6144996"
       height="1.3228999"
       width="1.3228999"
       id="rect58"
       style="fill:#ffffff;stroke-width:0.26458" />
    <path
       transform="scale(0.26457999)"
       id="path60"
       d="m 25.013852,19.130211 v -0.820749 h 0.685461 c 0.454787,0 0.752234,-0.06677 0.883883,-0.198423 0.180385,-0.180384 0.198423,-0.105771 0.198423,0.820749 v 1.019172 h -0.883883 -0.883884 z"
       style="fill:#000000;stroke-width:0.126269" />
    <path
       transform="scale(0.26457999)"
       id="path62"
       d="m 26.791588,16.026214 -0.01,-1.209961 0.594983,-0.115864 c 0.479575,-0.09339 0.611841,-0.177095 0.681893,-0.431537 0.0478,-0.17362 0.09258,0.351975 0.0995,1.167988 l 0.01259,1.483662 h -0.620823 c -0.378512,0 -0.645681,0.06161 -0.684511,0.157836 -0.03503,0.08681 -0.06818,-0.386646 -0.07366,-1.052124 z"
       style="fill:#000000;stroke-width:0.126269" />
    <path
       transform="scale(0.26457999)"
       id="path64"
       d="m 28.170579,12.731754 c 0,-0.624316 0.03442,-0.735746 0.227284,-0.735746 0.125007,0 0.29547,-0.06818 0.378807,-0.151523 0.117851,-0.117851 0.151523,0.03329 0.151523,0.680149 0,0.827545 -0.0019,0.831947 -0.378807,0.887268 l -0.378807,0.0556 z"
       style="fill:#000000;stroke-width:0.126269" />
    <path
       transform="scale(0.26457999)"
       id="path66"
       d="m 29.269575,10.879406 c -0.09986,-0.115073 -0.179647,-0.393891 -0.177297,-0.619597 0.0041,-0.3902063 0.02784,-0.4103749 0.483863,-0.4103749 0.555298,0 0.741012,-0.2352625 0.741012,-0.9387169 0,-0.431965 0.01828,-0.4502428 0.450243,-0.4502428 0.729091,0 0.938717,-0.1803089 0.938717,-0.8074328 V 7.1070323 l 0.662912,-0.1124606 c 0.549964,-0.093299 0.669788,-0.1608676 0.703262,-0.3965661 0.03624,-0.2551523 0.107012,-0.2826127 0.69448,-0.269458 0.359772,0.00806 0.554733,0.040625 0.433246,0.072376 -0.121487,0.031751 -0.254678,0.1923713 -0.29598,0.3569338 -0.04487,0.178768 -0.184368,0.3148199 -0.346565,0.337998 -0.221862,0.031704 -0.290673,0.1599316 -0.376563,0.7017059 L 33.07581,8.4604744 h -0.608204 c -0.682039,0 -0.761493,0.093302 -0.761493,0.8942106 v 0.4947491 h -0.542957 c -0.563719,0 -0.842182,0.1631379 -0.851347,0.4987629 -0.0029,0.107644 -0.197792,0.318278 -0.433004,0.468074 -0.395984,0.252185 -0.441107,0.256861 -0.60923,0.06313 z"
       style="fill:#000000;stroke-width:0.126269" />
    <path
       transform="scale(0.26457999)"
       id="path68"
       d="m 34.818401,6.2264747 c 0.282517,-0.055241 0.418587,-0.3632926 0.421521,-0.9542943 l 0.0017,-0.34724 h 3.219861 3.219861 v 0.5619365 c 0,0.4019683 0.06291,0.598575 0.220971,0.6906402 0.159341,0.092808 -0.191706,0.1297747 -1.258658,0.1325434 l -1.479629,0.00384 -0.188381,-0.3472399 c -0.103609,-0.190982 -0.190655,-0.272155 -0.193436,-0.1803844 -0.01394,0.4601674 -0.319806,0.5280333 -2.300447,0.5104287 -1.064042,-0.00946 -1.812567,-0.041061 -1.663388,-0.07023 z m 5.095201,-0.5915934 c 0,-0.02622 -0.09944,-0.1256573 -0.220971,-0.2209709 -0.200269,-0.1570624 -0.204736,-0.1525962 -0.04767,0.047674 0.164954,0.2103324 0.268644,0.2772211 0.268644,0.1732973 z"
       style="fill:#000000;stroke-width:0.126269" />
    <path
       transform="scale(0.26457999)"
       id="path70"
       d="m 48.640815,13.605939 c -0.01206,-0.181889 -0.137477,-0.220971 -0.709127,-0.220971 h -0.69448 l -0.0019,-1.167989 c -0.002,-1.226669 -0.03265,-1.335212 -0.440009,-1.559692 -0.138896,-0.07654 -0.270449,-0.259329 -0.29234,-0.406197 -0.04939,-0.3313734 -0.506063,-0.4311094 -1.727965,-0.3773843 -0.855328,0.037608 -0.885155,0.049886 -0.923255,0.3800713 -0.02484,0.215302 -0.137913,0.372483 -0.306417,0.425965 -0.146875,0.04662 -0.455879,0.268149 -0.686675,0.492296 -0.398823,0.387332 -0.41963,0.45267 -0.41963,1.317687 0,0.574611 -0.04655,0.881377 -0.126269,0.832109 -0.06945,-0.04292 -0.12627,-0.216738 -0.12627,-0.38626 0,-0.169521 -0.113642,-0.421863 -0.252538,-0.560758 -0.319829,-0.31983 -0.31759,-0.335104 0.06314,-0.430659 0.30373,-0.07623 0.315673,-0.117353 0.315673,-1.086976 V 9.8494341 l 0.536643,-0.00193 c 0.841177,-0.00303 0.866629,-0.04806 0.825576,-1.4605962 L 43.638582,7.1346523 42.9891,7.0969523 C 42.377001,7.061421 42.336425,7.0377748 42.28488,6.6865744 l -0.0547,-0.3726742 h 0.79888 c 0.762607,0 0.79888,0.013982 0.79888,0.3079358 0,0.2682199 0.07339,0.3189404 0.568983,0.39326 0.31294,0.046928 0.884259,0.045933 1.269598,-0.00221 0.58434,-0.073009 0.719907,-0.1382751 0.816852,-0.39326 0.101845,-0.2678729 0.19088,-0.3039103 0.71914,-0.2910764 0.331596,0.00806 0.503466,0.040633 0.381932,0.072393 -0.133878,0.034986 -0.220971,0.1785146 -0.220971,0.3641598 0,0.2108861 -0.07086,0.3064141 -0.227284,0.3064141 -0.427771,0 -0.53033,0.268608 -0.53033,1.3889598 0,1.1203517 0.102559,1.3889597 0.53033,1.3889597 0.199926,0 0.227284,0.1215925 0.227284,1.010153 0,0.555584 0.05231,1.010152 0.116237,1.010152 0.06393,0 0.153339,0.168927 0.198686,0.375394 0.07565,0.34444 0.607864,0.921309 0.957515,1.03786 0.07994,0.02665 0.117042,0.159929 0.08245,0.296183 -0.05236,0.206206 -0.06536,0.210692 -0.07755,0.02676 z"
       style="fill:#000000;stroke-width:0.126269" />
    <path
       transform="scale(0.26457999)"
       id="path72"
       d="m 50.156044,23.774562 c -0.01227,-4.783895 0.01337,-5.698961 0.15815,-5.643404 0.14148,0.05429 0.147876,-0.01331 0.03529,-0.373014 -0.07563,-0.241628 -0.181797,-0.411949 -0.235931,-0.378492 -0.05414,0.03346 -0.09843,-0.02168 -0.09843,-0.122516 0,-0.228168 -0.269807,-0.336634 -0.837373,-0.336634 h -0.437911 l 0.0056,-1.167989 c 0.0031,-0.642394 -0.02653,-1.366863 -0.06578,-1.609931 -0.05354,-0.331499 -0.03807,-0.394609 0.06191,-0.252538 0.0733,0.104172 0.134152,0.287758 0.135216,0.407969 0.0019,0.211986 0.213462,0.302139 0.885817,0.377431 0.30988,0.0347 0.316335,0.05794 0.351812,1.266473 0.01998,0.680733 0.09055,1.231123 0.157836,1.231123 0.06693,0 0.121697,0.13439 0.121697,0.298644 0,0.164255 0.113642,0.443117 0.252538,0.619695 0.24332,0.309331 0.252538,0.512246 0.252538,5.559179 v 5.238128 l -0.30643,0.07691 c -0.168537,0.0423 -0.332409,0.176308 -0.36416,0.297794 -0.03175,0.121488 -0.06432,-2.348486 -0.07238,-5.488827 z"
       style="fill:#000000;stroke-width:0.126269" />
    <path
       transform="scale(0.26457999)"
       id="path74"
       d="m 50.520204,29.098015 c 0,-0.10827 -0.05682,-0.161738 -0.126269,-0.118817 -0.08343,0.05156 -0.126269,-1.761953 -0.126269,-5.345474 0,-4.687926 0.02551,-5.433303 0.188116,-5.4957 0.249583,-0.09577 0.309113,0.198552 0.353911,1.749801 l 0.03646,1.262691 0.02643,-1.420527 0.02643,-1.420527 h 0.441942 0.441942 v 5.316563 5.316564 l -0.505077,-0.04817 c -0.417784,-0.03984 -0.505076,-0.0094 -0.505076,0.176141 0,0.123369 -0.05682,0.224308 -0.126269,0.224308 -0.06945,0 -0.126269,-0.08859 -0.126269,-0.196856 z"
       style="fill:#000000;stroke-width:0.126269" />
    <path
       transform="scale(0.26457999)"
       id="path78"
       d="m 65.702039,23.675897 c 0.002,-3.541847 0.03883,-6.240849 0.08178,-5.997781 0.06915,0.391388 0.127024,0.446618 0.505956,0.482815 l 0.427876,0.04087 -0.07228,-0.672217 c -0.04698,-0.436877 -0.03541,-0.561703 0.03305,-0.356546 0.05793,0.17362 0.110994,0.471931 0.117916,0.662913 0.0079,0.218885 0.0826,0.34724 0.20199,0.34724 0.165379,0 0.189404,0.678602 0.189404,5.349809 v 5.34981 l -0.520365,0.0698 c -0.619145,0.08304 -0.737543,0.183968 -0.869225,0.740938 -0.05488,0.232141 -0.09812,-2.475801 -0.09609,-6.017649 z m 30.371938,-3.567101 -0.03377,-3.125159 -0.34724,-0.03996 -0.34724,-0.03995 v -1.554516 c 0,-1.746315 -0.03149,-1.81542 -0.878931,-1.929086 l -0.510028,-0.06841 v -0.975089 c 0,-0.860021 -0.03654,-1.014516 -0.309644,-1.3092 -0.201569,-0.217496 -0.44117,-0.33411 -0.686479,-0.33411 -0.332853,0 -0.381455,-0.0479 -0.416404,-0.410375 C 92.507593,9.9428907 92.467351,9.9096127 91.999593,9.8725633 91.367585,9.8225041 91.277007,9.7321631 91.187667,9.0627612 91.124527,8.5896788 91.073157,8.5187127 90.76847,8.4836546 90.484876,8.4510235 90.42123,8.3809553 90.42123,8.1013757 90.42123,7.5707312 90.093154,7.2088803 89.530461,7.118902 89.120453,7.0533392 89.03227,6.9886099 89.03227,6.7532131 c 0,-0.1573138 -0.08988,-0.3205148 -0.199731,-0.362669 -0.109852,-0.042154 -1.945173,-0.076644 -4.078491,-0.076644 -4.005004,0 -4.181806,0.021719 -4.181806,0.5137044 0,0.1513297 -0.146553,0.2303155 -0.520365,0.2804542 -0.286201,0.038388 -0.576429,0.1258589 -0.64495,0.1943807 -0.182919,0.1829181 -0.268668,1.6723083 -0.118474,2.0577847 0.104381,0.2678942 0.240003,0.3481582 0.706483,0.4181113 l 0.577306,0.086572 v 0.8032996 0.803298 l -0.369094,-0.369094 c -0.203002,-0.203002 -0.503767,-0.369094 -0.668368,-0.369094 -0.228681,0 -0.327771,-0.0968 -0.420087,-0.410375 L 78.993879,9.9125687 h -0.947018 -0.947018 l -0.03957,0.4103743 c -0.03495,0.362477 -0.08355,0.410375 -0.416404,0.410375 -0.245309,0 -0.484909,0.116614 -0.686479,0.33411 l -0.309643,0.334111 v -0.77456 -0.7745605 l 0.502692,-0.080384 C 76.83971,9.6618158 76.96243,9.4635925 76.96243,8.4604742 76.96243,7.4563104 76.822562,7.2270985 76.143547,7.1185197 75.7581,7.0568842 75.636597,6.9686577 75.53473,6.6764432 L 75.407465,6.31137 l -5.846071,0.032832 -5.846072,0.032832 -0.03995,0.34724 c -0.0351,0.3050415 -0.09365,0.3472399 -0.48181,0.3472399 -0.713999,0 -0.89035,0.1654375 -0.985149,0.924183 -0.06179,0.4945701 -0.02922,0.8177464 0.120004,1.190696 0.210481,0.5260441 0.432833,0.6580399 1.114019,0.6613163 0.357975,0.00172 0.358398,0.00272 0.315672,0.7476408 -0.02353,0.410254 -0.0065,0.723323 0.03787,0.69571 0.175516,-0.109258 0.765815,0.85068 0.708259,1.151763 -0.03187,0.166736 -0.0093,0.273112 0.05008,0.236391 0.05942,-0.03672 0.117581,0.121257 0.129256,0.351061 0.01275,0.250936 0.0547,0.115215 0.105042,-0.339788 l 0.08382,-0.757614 0.02123,0.709018 c 0.01491,0.497984 0.09773,0.806282 0.278268,1.035793 0.141372,0.179725 0.317393,0.499904 0.391159,0.711508 0.07376,0.211604 0.185382,0.384735 0.248036,0.384735 0.06265,0 0.113916,0.518017 0.113916,1.151148 0,1.132164 -0.0047,1.149893 -0.284105,1.075012 -0.156258,-0.04188 -0.383542,-0.07691 -0.505076,-0.07786 -0.19459,-0.0015 -0.220971,-0.142848 -0.220971,-1.18377 V 14.55641 l 0.327717,0.06265 0.327719,0.06265 -0.202445,-0.391485 c -0.224703,-0.434527 -0.508909,-0.425961 -0.628227,0.01893 -0.04062,0.151454 -0.0837,0.815171 -0.09573,1.474927 l -0.02188,1.199557 -0.09717,-1.325826 C 64.387629,13.785111 64.292071,13.457505 63.86868,13.40815 63.52858,13.3685 63.525931,13.36058 63.525931,12.383603 V 11.39901 L 63.045635,11.066165 C 62.781473,10.8831 62.468957,10.73332 62.351155,10.73332 c -0.153499,0 -0.214184,-0.106647 -0.214184,-0.376402 0,-0.449391 -0.242247,-0.5416839 -1.268741,-0.4833741 -0.653674,0.037132 -0.69016,0.05742 -0.751434,0.4178341 -0.05674,0.333766 -0.121434,0.383515 -0.544077,0.418398 -0.382483,0.03157 -0.529387,0.121117 -0.725007,0.441942 l -0.245331,0.402351 -4.67e-4,-0.842284 c -4.67e-4,-0.8338852 0.0033,-0.8431153 0.379438,-0.9257255 0.20895,-0.045893 0.352342,-0.1280454 0.31865,-0.1825608 -0.07771,-0.1257334 0.368871,-0.5385782 0.471534,-0.4359153 0.16218,0.1621799 0.236753,-0.8385203 0.09459,-1.2692837 C 59.719589,7.454344 59.2246,7.0715146 58.797099,7.0715146 c -0.107621,0 -0.202777,-0.056821 -0.211458,-0.1262691 -0.0087,-0.069448 -0.02289,-0.1851627 -0.03157,-0.2571438 -0.02081,-0.1725298 -0.354649,-0.3747719 -0.485324,-0.2940104 -0.05654,0.03494 -0.0701,0.1164227 -0.03014,0.181072 0.03995,0.064649 0.01721,0.1175441 -0.05055,0.1175441 -0.06776,0 -0.142138,-0.054995 -0.165288,-0.1222123 C 57.796751,6.4949589 55.803436,6.4385529 52.603644,6.4228065 49.756276,6.4087946 47.227738,6.3623885 46.98467,6.3196821 l -0.441942,-0.077648 0.554842,-0.080761 c 0.305163,-0.044419 0.589268,-0.1276858 0.631345,-0.1850378 0.177919,-0.2425064 0.613429,-0.4007271 0.743898,-0.2702579 0.09128,0.091276 0.158725,-0.085578 0.220157,-0.5772605 L 48.78153,4.4198648 H 52.997 57.212465 V 4.868077 c 0,0.5861327 0.311321,1.173109 0.665209,1.2542083 0.154995,0.03552 0.707967,0.078959 1.228827,0.096531 0.924282,0.031183 0.947957,0.040085 0.986165,0.3708218 0.04789,0.4145536 0.491827,0.5454289 1.418032,0.4180432 0.587414,-0.08079 0.62626,-0.1088955 0.62626,-0.4530913 V 6.1876311 h 0.943776 c 0.899315,0 0.952729,-0.016358 1.133849,-0.3472399 0.104541,-0.190982 0.299776,-0.4750874 0.433857,-0.6313454 l 0.243784,-0.2841054 h 4.683282 c 4.511948,0 4.683283,0.00875 4.683283,0.2391846 0,0.1315515 0.164849,0.4156568 0.366333,0.6313453 0.351484,0.3762649 0.407785,0.3921608 1.38896,0.3921608 1.009295,0 1.022626,0.00416 1.022626,0.318798 0,0.3607474 0.382943,0.5662209 1.04994,0.5633613 0.714889,-0.00306 0.978322,-0.1327607 1.055722,-0.5197628 0.07226,-0.3613051 0.0754,-0.3623965 1.043225,-0.3623965 0.896,0 0.995778,-0.026736 1.295855,-0.3472399 0.178813,-0.190982 0.363735,-0.4750874 0.410941,-0.6313454 0.08567,-0.2835857 0.09099,-0.2841054 2.906022,-0.2841054 h 2.820193 l 0.128538,0.3687236 c 0.260554,0.7474269 0.543658,0.8939671 1.727068,0.8939671 h 1.073287 v 0.3687745 c 0,0.3070811 0.06337,0.3826932 0.378807,0.4519745 0.315435,0.069281 0.378807,0.1448934 0.378807,0.4519744 0,0.4689291 0.365783,0.8362758 0.939975,0.943995 0.420083,0.078808 0.448985,0.1148431 0.448985,0.5597927 0,0.5664325 0.140678,0.7016073 0.852316,0.8189796 l 0.536644,0.08851 v 0.9832702 0.98327 l 0.394591,0.07892 c 0.217025,0.0434 0.52954,0.07892 0.694479,0.07892 0.293921,0 0.299927,0.02325 0.301823,1.167989 0.0021,1.268028 0.04405,1.404866 0.471576,1.538286 0.273675,0.08541 0.284105,0.143642 0.284105,1.586363 0,1.694122 0.05545,1.817718 0.87779,1.956652 l 0.503986,0.08515 0.03516,1.654723 0.03516,1.654723 0.410375,0.106163 c 0.400048,0.103491 0.410374,0.123545 0.410374,0.797032 v 0.690869 H 97.3051 96.10775 Z m -31.03283,-6.400703 c 0,-0.03063 -0.05682,-0.0908 -0.126269,-0.133721 -0.06945,-0.04292 -0.126269,-0.01786 -0.126269,0.05568 0,0.07355 0.05682,0.133721 0.126269,0.133721 0.06945,0 0.126269,-0.02506 0.126269,-0.05568 z M 64.12796,11.74347 c -0.182325,-0.291947 -0.475773,-0.336598 -0.475773,-0.07239 0,0.155703 0.170578,0.254134 0.537713,0.310284 0.05268,0.0081 0.0248,-0.099 -0.06194,-0.237891 z m 1.923339,4.103745 c 0,-0.869854 0.0359,-1.073287 0.189404,-1.073287 0.153504,0 0.189404,0.203433 0.189404,1.073287 0,0.869853 -0.0359,1.073287 -0.189404,1.073287 -0.153504,0 -0.189404,-0.203434 -0.189404,-1.073287 z"
       style="fill:#000000;stroke-width:0.126269" />
    <path
       transform="scale(0.26457999)"
       id="path80"
       d="m 76.994619,37.41818 c -0.0463,-0.0463 -0.08418,-0.213408 -0.08418,-0.371354 0,-0.157947 -0.06577,-0.327825 -0.146159,-0.377507 -0.100142,-0.06189 -0.123742,-0.0046 -0.07496,0.181951 0.04976,0.190285 0.01366,0.272283 -0.119889,0.272283 -0.117982,0 -0.163285,-0.07246 -0.11841,-0.189404 0.04506,-0.11742 -6.32e-4,-0.189403 -0.120212,-0.189403 -0.106091,0 -0.157776,0.05682 -0.114854,0.126269 0.04292,0.06945 0.01786,0.126269 -0.05568,0.126269 -0.07355,0 -0.133721,-0.05682 -0.133721,-0.126269 0,-0.06945 -0.08523,-0.126269 -0.189404,-0.126269 -0.174938,0 -0.235061,-0.233469 -0.23413,-0.909173 1.26e-4,-0.11808 -0.05618,-0.179786 -0.125216,-0.137122 -0.07337,0.04535 -0.09304,-0.007 -0.04735,-0.126117 0.05488,-0.143025 0.02367,-0.182776 -0.104811,-0.133473 -0.100635,0.03862 -0.182973,0.0073 -0.182973,-0.06957 0,-0.08148 -0.236971,-0.139779 -0.56821,-0.139779 h -0.568211 v -1.010153 c 0,-0.925972 -0.02105,-1.010152 -0.252538,-1.010152 -0.236679,0 -0.254233,-0.09318 -0.27953,-1.483662 l -0.02699,-1.483661 -0.04028,1.420527 c -0.0325,1.146118 -0.07607,1.420527 -0.225546,1.420527 -0.152804,0 -0.185269,-0.272156 -0.185269,-1.55311 0,-0.85421 -0.05245,-1.607089 -0.116552,-1.673065 -0.0641,-0.06598 -0.135131,-0.290419 -0.157837,-0.498763 -0.03062,-0.281001 -0.114637,-0.389225 -0.325389,-0.419156 l -0.284105,-0.04035 v -5.294518 c 0,-5.02717 0.01155,-5.294519 0.228792,-5.294519 0.125836,0 0.366286,-0.184669 0.534334,-0.410375 0.269308,-0.361708 0.311216,-0.571347 0.353387,-1.767767 0.04256,-1.207404 0.07306,-1.357392 0.276088,-1.357392 0.590955,0 0.627704,-0.0858 0.627704,-1.465604 v -1.312316 h 0.559191 c 0.339997,0 0.636971,-0.07778 0.757615,-0.198423 0.109133,-0.109132 0.198423,-0.137543 0.198423,-0.06313 0,0.07441 0.115714,0.01957 0.257143,-0.121856 0.14143,-0.141429 0.225069,-0.309041 0.185868,-0.372471 -0.09478,-0.153359 0.349964,-0.383143 0.716677,-0.370282 0.268113,0.0094 0.260935,0.02467 -0.0864,0.183708 -0.208344,0.0954 -0.327354,0.176016 -0.264466,0.179149 0.06289,0.0031 -0.04117,0.139325 -0.231248,0.302651 -0.285654,0.245456 -0.357797,0.431592 -0.415984,1.073287 -0.06345,0.699731 -0.09839,0.776331 -0.354143,0.776331 -0.472375,0 -0.734323,0.739004 -0.794445,2.241276 -0.02849,0.711842 -0.102173,1.294258 -0.163744,1.294258 -0.196961,0 -0.130325,-2.297759 0.07823,-2.697651 0.203848,-0.39086 0.250589,-0.837883 0.08761,-0.837883 -0.323785,0 -0.404061,0.379643 -0.404061,1.910903 v 1.607857 l -0.34724,0.03995 -0.34724,0.03996 -0.03269,6.600489 -0.0327,6.600491 0.379935,0.07599 0.379935,0.07599 0.0019,0.962801 c 0.0024,1.238752 0.163579,1.560842 0.854131,1.706789 0.443908,0.09382 0.532968,0.162395 0.532968,0.410375 0,0.229222 0.06901,0.297732 0.299889,0.297732 0.164939,0 0.477455,0.03551 0.69448,0.07892 0.375735,0.07515 0.39459,0.107688 0.39459,0.680971 0,0.43251 0.05625,0.623635 0.199732,0.678696 0.352768,0.13537 1.638704,0.08174 1.79532,-0.07488 0.08334,-0.08334 0.151523,-0.393279 0.151523,-0.688759 0,-0.573361 6.31e-4,-0.573775 1.073287,-0.725274 0.14242,-0.02011 0.269377,-0.148804 0.291156,-0.295127 0.02812,-0.188925 0.18768,-0.296997 0.586931,-0.397529 0.667527,-0.168084 0.82655,-0.514633 0.82655,-1.80124 0,-0.748824 0.03054,-0.865042 0.227284,-0.865042 0.125007,0 0.29547,-0.06818 0.378808,-0.151523 0.11785,-0.11785 0.151523,0.201835 0.151523,1.438585 0,1.296948 -0.03492,1.603507 -0.189404,1.66279 -0.104172,0.03997 -0.189404,0.159695 -0.189404,0.266047 0,0.106352 -0.05682,0.193366 -0.126269,0.193366 -0.07015,0 -0.126269,0.336718 -0.126269,0.757615 0,0.837496 0.07791,0.778677 -1.073287,0.810333 -0.371187,0.0102 -0.379568,0.02502 -0.416675,0.736463 l -0.03787,0.726047 -0.593476,0.01495 c -0.326413,0.0082 -0.625745,0.01167 -0.665185,0.0077 -0.03944,-0.004 -0.0472,0.159727 -0.01724,0.363855 l 0.05447,0.371142 h -1.129708 c -0.62134,0 -1.16759,-0.03788 -1.213888,-0.08418 z m 5.322806,-4.093457 c 0.145001,-0.232185 0.137571,-0.258124 -0.06288,-0.219521 -0.125021,0.02408 -0.246335,0.14256 -0.269586,0.263296 -0.05801,0.301206 0.132701,0.276095 0.332464,-0.04378 z M 73.3024,29.884196 c -0.04443,-0.115785 -0.138481,-0.210518 -0.209003,-0.210518 -0.07562,0 -0.06562,0.07543 0.02438,0.183873 0.08393,0.101129 0.110962,0.257387 0.06007,0.34724 -0.06799,0.12004 -0.05303,0.127106 0.0564,0.02664 0.08191,-0.0752 0.11258,-0.231455 0.06815,-0.34724 z m 0.02893,-12.022122 c 0.113643,-0.296148 -0.009,-0.330921 -0.183248,-0.05195 -0.09755,0.156204 -0.10593,0.246796 -0.02282,0.246796 0.07222,0 0.164949,-0.08768 0.206073,-0.19485 z m 9.513753,13.768775 c 0,-1.206572 0.03202,-1.452095 0.189403,-1.452095 0.157379,0 0.189404,0.245523 0.189404,1.452095 0,1.206571 -0.03203,1.452094 -0.189404,1.452094 -0.157379,0 -0.189403,-0.245523 -0.189403,-1.452094 z m 0.532649,-0.157837 c -0.01609,-0.976079 -0.07852,-1.673065 -0.14988,-1.673065 -0.06727,0 -0.0896,-0.08523 -0.04963,-0.189404 0.03998,-0.104172 0.0064,-0.189403 -0.07455,-0.189403 -0.08098,0 -0.112113,-0.05682 -0.06919,-0.126269 0.04292,-0.06945 -0.01054,-0.126269 -0.118816,-0.126269 -0.175439,0 -0.196856,-0.631057 -0.196856,-5.800157 0,-3.46305 -0.04962,-5.930667 -0.123144,-6.12405 -0.07166,-0.188485 -0.22197,-0.323893 -0.35953,-0.323893 -0.213621,0 -0.243715,-0.145742 -0.312476,-1.513303 -0.07219,-1.435828 -0.09419,-1.532343 -0.42965,-1.885185 -0.578665,-0.608646 -0.900925,-1.083299 -0.997946,-1.469862 -0.05029,-0.200352 -0.224776,-0.508026 -0.387755,-0.683719 -0.162981,-0.175694 -0.271106,-0.385259 -0.24028,-0.4657 0.03083,-0.08044 -0.08587,-0.181878 -0.259335,-0.225414 -0.19888,-0.04992 -0.363592,-0.217448 -0.445888,-0.453521 -0.129686,-0.3720183 -0.136703,-0.3743639 -1.119917,-0.3743639 -0.985495,0 -0.989572,0.00138 -1.029368,0.3472399 -0.03024,0.262814 -0.137383,0.378733 -0.440674,0.476768 -0.220395,0.07124 -0.518706,0.236306 -0.662913,0.366811 l -0.262192,0.237281 v -0.71405 c 0,-0.7115777 0.0013,-0.7140499 0.384546,-0.7140499 0.239926,0 0.501107,-0.1165605 0.69448,-0.3099331 0.255419,-0.2554186 0.309933,-0.4345561 0.309933,-1.0184537 0,-1.0035021 -0.260916,-1.4436166 -0.858189,-1.4475991 -0.188801,-0.00126 -0.365028,-0.1338261 -0.505076,-0.3799424 L 75.458345,6.3154969 69.555266,6.3147014 c -5.759344,-7.829e-4 -5.903079,0.00517 -5.903079,0.2442877 0,0.2979021 -0.169714,0.4125508 -0.75043,0.5069433 -0.30243,0.049159 -0.493828,0.1718605 -0.602205,0.3860635 -0.21294,0.4208653 -0.204091,1.2960832 0.01849,1.8287917 0.172928,0.4138754 0.302149,0.4895613 1.018473,0.5965275 0.21347,0.031877 0.258398,0.1498429 0.290407,0.7625309 0.02388,0.457152 0.09383,0.725534 0.189403,0.726753 0.09984,0.0013 0.09141,0.04001 -0.0247,0.113526 -0.247262,0.156564 -0.08572,0.488168 0.261927,0.537659 0.174729,0.02487 0.306228,0.142023 0.329902,0.2939 0.02165,0.138896 0.103441,0.381469 0.181753,0.539053 0.107199,0.215709 0.170583,0.246913 0.256487,0.126269 0.07228,-0.101512 0.09004,0.01331 0.04845,0.313263 -0.05315,0.383333 -0.02574,0.473509 0.143908,0.473509 0.164798,0 0.149615,0.04199 -0.07107,0.196564 -0.224196,0.157032 -0.283802,0.328443 -0.296388,0.852316 l -0.01575,0.65575 -0.09663,-0.662113 c -0.157696,-1.080578 -0.242505,-1.298202 -0.551725,-1.415768 -0.312712,-0.118892 -0.450975,-0.598381 -0.456737,-1.583922 -0.0026,-0.436329 -0.06265,-0.543747 -0.44156,-0.789182 -0.241235,-0.156258 -0.499126,-0.284105 -0.573091,-0.284105 -0.07397,0 -0.217578,-0.198874 -0.319139,-0.441942 L 62.0073,9.8494341 h -0.893156 c -0.876444,0 -0.895834,0.00709 -1.036142,0.3788069 -0.103179,0.273354 -0.22586,0.378808 -0.440686,0.378808 -0.163737,0 -0.463796,0.166092 -0.666797,0.369094 -0.362159,0.362158 -0.369095,0.363641 -0.369095,0.07892 0,-0.566052 0.164921,-1.1021157 0.362378,-1.1778872 0.110111,-0.042253 0.386137,-0.2627599 0.613392,-0.4900147 0.347242,-0.3472424 0.41319,-0.506103 0.41319,-0.9953233 0,-0.4750512 -0.06789,-0.6500266 -0.369094,-0.951227 -0.203002,-0.2030018 -0.488514,-0.3690942 -0.634471,-0.3690942 -0.167602,0 -0.310049,-0.1174977 -0.386625,-0.3189084 -0.124954,-0.3286548 -0.521738,-0.5749704 -0.590743,-0.3667213 -0.02337,0.070516 -0.909065,0.085163 -2.217281,0.036667 -1.198106,-0.044413 -3.684132,-0.093752 -5.524504,-0.1096412 -1.840372,-0.015889 -3.204078,-0.064797 -3.030458,-0.1086835 0.17362,-0.043886 0.493137,-0.1769502 0.710038,-0.2956971 0.216902,-0.118747 0.43307,-0.1771995 0.480375,-0.1298945 0.129162,0.1291619 0.320688,-0.2400292 0.322882,-0.6223973 C 48.755003,4.3794356 48.5184,4.419866 53.059095,4.419866 h 4.15337 v 0.5611695 c 0,0.4021391 0.08051,0.6526395 0.284105,0.8839385 0.250158,0.2842018 0.416123,0.332532 1.38896,0.4044766 0.771462,0.057052 1.104854,0.1305179 1.104854,0.2434639 0,0.3527112 0.395112,0.5586019 1.071979,0.5586019 0.906111,0 1.074595,-0.081308 1.074595,-0.5185857 V 6.1876311 h 0.947228 0.947229 l 0.453576,-0.6313453 0.453576,-0.6313454 h 3.061923 c 4.282343,0 6.135472,0.1093278 6.225324,0.367271 0.0385,0.1105169 0.214349,0.3571978 0.390781,0.5481798 0.279603,0.3026594 0.419073,0.3483794 1.086345,0.3561147 0.935429,0.010844 1.174634,0.097816 1.375135,0.4999834 0.142977,0.2867833 0.226049,0.3118908 1.031921,0.3118908 0.808759,0 0.88856,-0.024372 1.033603,-0.3156727 0.183825,-0.3691903 0.48594,-0.4752328 1.403105,-0.4924898 0.549781,-0.010344 0.723381,-0.071327 0.974545,-0.3423373 0.168082,-0.1813629 0.337046,-0.4288228 0.375479,-0.5499108 0.08675,-0.2733389 1.17692,-0.3830291 3.806769,-0.3830291 h 1.810155 l 0.17776,0.4254394 c 0.285126,0.6824019 0.62005,0.8372513 1.810896,0.8372513 h 1.045191 v 0.3819325 c 0,0.2920868 0.0749,0.4104107 0.318413,0.5029927 0.208289,0.079192 0.344311,0.2505589 0.3933,0.4954966 0.08917,0.4458308 0.391149,0.7452648 0.88465,0.8771842 0.249561,0.066711 0.394558,0.2104583 0.47027,0.4662175 0.193068,0.6521862 0.283152,0.7460134 0.849682,0.8849886 l 0.556084,0.1364125 0.06314,1.0000093 0.06313,1.000009 0.505077,0.04001 c 0.277792,0.022 0.552915,0.08689 0.611386,0.144191 0.05847,0.0573 0.143701,0.63592 0.189403,1.285819 0.07317,1.040577 0.115086,1.195687 0.351089,1.299342 0.22036,0.09679 0.281919,0.265112 0.346342,0.947018 0.04309,0.456121 0.07875,1.102947 0.07925,1.43739 0.0011,0.811465 0.160625,1.068056 0.728479,1.172468 0.259587,0.04773 0.513721,0.149612 0.564744,0.226404 0.05102,0.07679 0.09364,0.831168 0.0947,1.676386 l 0.0019,1.536764 0.363364,0.07981 c 0.299774,0.06584 0.376871,0.16151 0.440552,0.546675 0.159245,0.963177 0.209647,0.922319 -1.088021,0.881982 l -1.167988,-0.03631 -0.03375,-3.116984 -0.03376,-3.116983 -0.345051,-0.03974 -0.345052,-0.03974 -0.06313,-1.614902 c -0.06678,-1.708194 -0.122007,-1.85137 -0.715719,-1.855563 -0.617354,-0.0044 -0.67324,-0.09835 -0.67324,-1.132295 0,-1.082161 -0.14215,-1.326477 -0.919966,-1.581165 -0.258328,-0.0846 -0.420411,-0.235621 -0.467195,-0.435332 C 92.514095,10.001258 92.371351,9.9016321 91.936365,9.796177 91.406897,9.6678161 91.368682,9.6289745 91.26811,9.1169527 91.188032,8.7092661 91.084226,8.5445192 90.851728,8.4561236 90.65212,8.3802326 90.515396,8.205261 90.467131,7.963936 90.377894,7.5177476 90.075521,7.2182265 89.582481,7.0876287 89.374983,7.0326662 89.15168,6.8479797 89.056947,6.6529786 L 88.892221,6.3139002 h -3.960259 c -2.178141,0 -4.050137,0.03449 -4.159988,0.076644 -0.109853,0.042154 -0.199732,0.1570145 -0.199732,0.2552453 0,0.1844916 -0.322906,0.3561871 -0.900362,0.4787398 -0.399039,0.084687 -0.484537,0.3442905 -0.486874,1.4783205 -0.002,0.9492443 0.114836,1.1178399 0.857209,1.2374381 0.432135,0.069618 0.469811,0.1103594 0.506083,0.5472581 0.03364,0.405152 0.0023,0.472041 -0.220971,0.472041 -0.342497,0 -0.324811,0.103243 0.106876,0.623858 0.288577,0.348025 0.482578,0.451427 0.975188,0.519772 l 0.614946,0.08532 -0.593749,0.01687 -0.593749,0.01687 0.308409,0.332779 c 0.368353,0.39746 0.942223,1.396497 0.942223,1.640296 0,0.09543 0.05682,0.1735 0.126269,0.1735 0.06945,0 0.126269,0.06017 0.126269,0.133721 0,0.07355 -0.07103,0.09774 -0.157836,0.05377 -0.08681,-0.04397 -0.04754,0.0095 0.08727,0.118817 0.134808,0.109322 0.433118,0.198768 0.662913,0.198768 h 0.417808 v 1.179916 c 0,1.077555 0.02745,1.211745 0.316434,1.546796 0.174038,0.201784 0.34833,0.466317 0.387315,0.587851 0.03899,0.121534 0.123875,0.220971 0.188644,0.220971 0.07096,0 0.117759,2.1027 0.117759,5.290948 v 5.290949 l -0.374363,0.130504 c -0.470937,0.164169 -0.502748,0.305172 -0.545874,2.419582 l -0.03477,1.704632 z m 0.477503,-13.343934 c 0,-0.09921 -0.07626,-0.256642 -0.16946,-0.349847 -0.0932,-0.0932 -0.237256,-0.296136 -0.320117,-0.450961 -0.08286,-0.154825 -0.263379,-0.281499 -0.401155,-0.281499 -0.20754,0 -0.237452,0.05955 -0.174414,0.34724 0.134413,0.613426 0.162646,0.650671 0.585699,0.772644 0.228971,0.06602 0.430518,0.125156 0.44788,0.131419 0.01736,0.0063 0.03157,-0.06979 0.03157,-0.168996 z m 0.631346,5.483685 c 0,-4.629867 0.02405,-5.303301 0.189403,-5.303301 0.165352,0 0.189404,0.673434 0.189404,5.303301 0,4.629866 -0.02405,5.303301 -0.189404,5.303301 -0.165352,0 -0.189403,-0.673435 -0.189403,-5.303301 z"
       style="fill:#000000;stroke-width:0.126269" />
    <path
       transform="scale(0.26457999)"
       id="path82"
       d="m 59.945773,37.247739 c -0.08026,-0.401299 -0.455898,-0.629262 -1.036896,-0.629262 -0.27245,0 -0.307453,-0.05528 -0.307453,-0.485506 0,-0.607734 -0.302901,-0.903454 -0.925393,-0.903454 h -0.463566 v -0.921764 c 0,-0.548569 -0.06135,-0.983111 -0.151523,-1.073287 -0.08334,-0.08334 -0.395854,-0.151523 -0.69448,-0.151523 h -0.542957 l -0.02425,-1.483662 c -0.01334,-0.816014 -0.0253,-1.611509 -0.02659,-1.767767 -0.0013,-0.156258 -0.04719,-0.284105 -0.102017,-0.284105 -0.05482,0 -0.09968,-0.109814 -0.09968,-0.244029 0,-0.134216 -0.113642,-0.280098 -0.252538,-0.324182 -0.247234,-0.07847 -0.252539,-0.191049 -0.252539,-5.360218 0,-5.028586 0.01111,-5.28297 0.233282,-5.341069 0.295498,-0.07727 0.394838,-0.646474 0.396674,-2.27286 l 0.0014,-1.231123 h 0.559191 c 0.540973,0 0.956038,-0.229908 0.956038,-0.529557 0,-0.08718 0.05964,-0.08322 0.173817,0.01154 0.138571,0.115003 0.215386,0.05666 0.378808,-0.287727 0.112744,-0.237591 0.204989,-0.466012 0.204989,-0.507602 0,-0.135844 -0.4508,-0.07939 -0.606091,0.0759 -0.117852,0.117851 -0.151523,-0.03283 -0.151523,-0.678058 v -0.829581 l 0.544694,-0.0614 c 0.805905,-0.09084 1.292747,-0.364877 1.255516,-0.70672 -0.02193,-0.201329 0.06155,-0.316867 0.292325,-0.404609 0.454095,-0.172646 0.643295,-0.153061 0.643295,0.06659 0,0.104172 -0.07849,0.189404 -0.174416,0.189404 -0.09593,0 -0.311947,0.156258 -0.480041,0.34724 -0.252366,0.286728 -0.306321,0.484767 -0.309616,1.136421 -0.0036,0.702153 -0.03168,0.789182 -0.255085,0.789182 -0.259692,0 -0.759058,0.355146 -0.759058,0.539838 0,0.0577 -0.142053,0.313955 -0.315673,0.56946 -0.269755,0.396981 -0.315672,0.607225 -0.315672,1.445395 v 0.980841 h -0.370587 c -0.716198,0 -0.993119,0.191537 -0.993119,0.686906 0,0.24762 0.05114,0.481825 0.113642,0.520454 0.06457,0.03991 0.113642,2.480674 0.113642,5.652445 v 5.58221 l 0.320225,0.471254 c 0.176124,0.259188 0.403408,0.471252 0.505076,0.471252 0.144519,0 0.184852,0.191059 0.184852,0.875664 0,0.89686 0.152376,1.507709 0.418274,1.676782 0.08246,0.05244 0.327502,0.09621 0.544527,0.09727 0.335203,0.0016 0.40579,0.05793 0.469001,0.373985 0.06981,0.349058 0.115661,0.37442 0.741831,0.410374 l 0.667421,0.03832 0.03817,0.662912 c 0.04268,0.741229 0.03158,0.73516 1.224524,0.66975 0.729302,-0.03999 0.816182,-0.130447 0.818816,-0.852554 l 0.0019,-0.530045 0.662913,-0.03817 c 0.582441,-0.03353 0.667919,-0.07348 0.704153,-0.329075 0.02403,-0.169506 0.170291,-0.339973 0.350476,-0.408479 0.170079,-0.06466 0.345287,-0.217861 0.38935,-0.340437 0.04406,-0.122577 0.18466,-0.324516 0.312437,-0.448756 0.177475,-0.172561 0.232322,-0.415174 0.232322,-1.027666 v -0.801779 l 0.433479,-0.08132 c 0.255965,-0.04802 0.456801,-0.170118 0.490429,-0.298158 0.03132,-0.11926 0.06354,0.536043 0.0716,1.456229 0.01454,1.661179 0.0126,1.673065 -0.272963,1.673065 -0.492451,0 -0.72018,0.415734 -0.744336,1.358836 l -0.02179,0.850872 -0.08268,-0.820748 -0.08268,-0.820749 -0.02179,0.789181 c -0.02024,0.732997 -0.04247,0.789182 -0.312213,0.789182 -0.426401,0 -0.593465,0.236297 -0.593465,0.839404 v 0.536358 l -0.662912,0.03817 c -0.650961,0.03748 -0.665022,0.0467 -0.779884,0.511675 l -0.116972,0.473509 H 61.05718 60.021946 Z m -3.445261,-7.258388 c -0.03997,-0.104172 -0.123422,-0.189404 -0.18544,-0.189404 -0.06202,0 -0.11276,-0.08523 -0.11276,-0.189404 0,-0.263431 -0.224006,-0.238125 -0.279443,0.03157 -0.04717,0.229477 0.228881,0.525644 0.496451,0.532628 0.08549,0.0022 0.121571,-0.08016 0.08119,-0.185388 z m 9.482994,1.388959 c 0.01894,-0.984722 0.10033,-1.932885 0.183745,-2.140531 0.148881,-0.370614 0.14825,-0.371411 -0.109373,-0.138265 l -0.259117,0.234498 v -5.625247 -5.625246 l 0.465736,0.10504 c 0.256154,0.05777 0.526054,0.0944 0.599778,0.0814 0.153839,-0.02713 0.281206,3.146995 0.306984,7.650367 l 0.01646,2.875778 -0.386699,0.07734 c -0.27877,0.05575 -0.348336,0.115703 -0.249249,0.21479 0.09909,0.09909 0.05909,0.196555 -0.1433,0.34922 -0.257666,0.194358 -0.288077,0.35553 -0.369859,1.960196 l -0.08911,1.748423 z"
       style="fill:#000000;stroke-width:0.126269" />
    <path
       transform="scale(0.26457999)"
       id="path84"
       d="m 43.701674,37.060418 v -0.441941 h -0.687881 -0.687881 l -0.03817,-0.662913 c -0.03506,-0.608999 -0.06497,-0.666023 -0.367685,-0.701157 -0.314649,-0.03652 -0.332715,-0.08049 -0.400319,-0.974372 -0.03894,-0.514871 -0.107088,-0.994845 -0.151442,-1.06661 -0.04435,-0.07177 -0.326075,-0.130482 -0.626048,-0.130482 h -0.545405 l -0.05245,-1.952178 c -0.02885,-1.073699 -0.08977,-1.989499 -0.135385,-2.035113 -0.04561,-0.04561 -0.341436,-0.112071 -0.657382,-0.147683 l -0.574448,-0.06475 v -5.28688 -5.286879 l 0.410374,-0.0017 c 1.001734,-0.0042 0.978585,0.03913 0.978585,-1.832056 v -1.678057 l 0.631205,-0.08681 c 0.347162,-0.04775 0.663031,-0.138311 0.701932,-0.201253 0.0389,-0.06294 0.178357,-0.114439 0.309905,-0.114439 0.346468,0 0.756071,-1.000589 0.756071,-1.846953 0,-0.373136 0.05682,-0.678429 0.126269,-0.678429 0.26582,0 0.132783,1.287341 -0.204222,1.976153 -0.181769,0.371524 -0.380643,0.675498 -0.441941,0.675498 -0.0613,0 -0.111452,0.5398 -0.111452,1.199556 v 1.199556 h -0.387826 c -0.401949,0 -0.546332,0.09944 -0.911599,0.627874 -0.24349,0.352254 -0.299402,0.133907 -0.06275,-0.245038 0.164385,-0.263222 0.07616,-0.461367 -0.144656,-0.324894 -0.09258,0.05722 -0.13467,2.128923 -0.13467,6.628261 0,7.286814 -0.07817,6.698318 0.889794,6.698318 h 0.490332 l 0.03598,1.294258 c 0.03348,1.204058 0.05579,1.302946 0.32009,1.418902 0.156258,0.06855 0.284106,0.226219 0.284106,0.350365 0,0.266443 0.471009,0.472009 1.081507,0.472009 h 0.433721 v 0.625624 c 0,0.618552 0.0051,0.626589 0.455413,0.711059 0.45878,0.08607 1.866175,-0.01117 2.08071,-0.143766 0.06354,-0.03927 0.115528,-0.206399 0.115528,-0.3714 0,-0.518203 0.227508,-0.947786 0.501951,-0.947786 0.184787,0 0.255663,-0.08296 0.255663,-0.299251 0,-0.261841 0.07241,-0.307412 0.579192,-0.364534 0.318556,-0.03591 0.638799,-0.124891 0.711652,-0.197744 0.07285,-0.07285 0.160555,-0.66956 0.194891,-1.326016 l 0.06243,-1.193554 0.605384,-0.08031 c 0.332962,-0.04417 0.633581,-0.149944 0.668043,-0.235054 0.03446,-0.08511 0.06714,0.569722 0.07263,1.455184 l 0.01,1.609931 h -0.616619 c -0.71992,0 -0.767836,0.0844 -0.770617,1.357392 l -0.0017,0.789182 h -0.450243 c -0.732404,0 -0.938717,0.179519 -0.938717,0.816804 0,0.512005 -0.02712,0.558502 -0.34724,0.595336 -0.28934,0.03329 -0.353837,0.108382 -0.386807,0.450329 l -0.03957,0.410374 h -1.444094 -1.444094 z m 6.593565,-5.641521 c -0.02223,-1.392257 0.0091,-1.763839 0.161468,-1.916221 0.193711,-0.193712 0.12771,-0.641202 -0.076,-0.515301 -0.06587,0.04071 -0.113038,-2.193344 -0.113038,-5.353651 0,-4.687926 0.02551,-5.433303 0.188116,-5.4957 0.231996,-0.08903 0.302479,0.183318 0.354816,1.370994 l 0.03895,0.883883 0.02473,-1.041719 0.02473,-1.04172 h 0.441942 0.441942 v 5.295362 5.295362 l -0.441942,-0.07172 c -0.34009,-0.05519 -0.441942,-0.02818 -0.441942,0.117179 0,0.103893 -0.111941,0.331207 -0.248758,0.505142 -0.213902,0.271931 -0.254272,0.552991 -0.288099,2.005767 l -0.03934,1.68952 z"
       style="fill:#000000;stroke-width:0.126269" />
    <rect
       y="6.6144996"
       x="25.135099"
       height="1.3228999"
       width="1.3228999"
       id="rect93"
       style="fill:#ffffff;stroke-width:0.26458" />
    <rect
       y="5.9530497"
       x="23.812199"
       height="1.3228999"
       width="2.6457999"
       id="rect95"
       style="fill:#ffffff;stroke-width:0.26458" />
    <path
       id="path101"
       d="m 11.9061,11.9061 3.968699,1.322899"
       style="fill:none;stroke:#000000;stroke-width:0.26458px;stroke-linecap:butt;stroke-linejoin:miter;stroke-opacity:1" />
    <rect
       y="11.906099"
       x="11.906099"
       height="2.6457999"
       width="5.2915998"
       id="rect105"
       style="fill:#ffffff;stroke-width:0.26458" />
    <rect
       ry="3.0554196e-07"
       y="11.906099"
       x="11.906099"
       height="1.3228999"
       width="1.3228999"
       id="rect107"
       style="fill:#ffffff;stroke-width:0.26458" />
    <rect
       ry="3.0554227e-07"
       y="10.5832"
       x="10.5832"
       height="1.3228999"
       width="2.6457999"
       id="rect115"
       style="fill:#ffffff;stroke-width:0.26458" />
    <rect
       y="6.6144996"
       x="23.812199"
       height="1.3228999"
       width="2.6457999"
       id="rect117"
       style="fill:#ffffff;stroke-width:0.26458" />
    <rect
       y="-5.2915998"
       x="5.2915998"
       height="2.020238e-07"
       width="3.9686999"
       id="rect119"
       style="fill:#ffffff;stroke-width:0.000103394" />
    <path
       id="path461"
       d="m 6.6144995,5.2915998 c 0.044657,0.029044 0.086719,0.062534 0.1339709,0.087131 0.013007,0.00677 0.2914213,0.00463 0.3006745,0 0.022272,-0.011136 0.089089,-0.077953 0.1002247,-0.1002248 0.00498,-0.00996 -0.00498,-0.023447 0,-0.033408 0.00704,-0.014086 0.026365,-0.019322 0.033408,-0.033408 0.014941,-0.029881 -0.0081,-0.067814 0,-0.1002247 0.00604,-0.024159 0.025535,-0.043194 0.033408,-0.066817 0.00939,-0.028175 -0.013192,-0.073842 0,-0.1002247 0.014086,-0.028172 0.05273,-0.038644 0.066816,-0.066816 0.013909,-0.027815 -0.02119,-0.1124418 0,-0.133633 0.038862,-0.038862 0.033408,0.055064 0.033408,-0.066816 0,-0.040128 -0.017565,-0.1319128 0,-0.1670416 0.041283,-0.082565 0.033408,0.011533 0.033408,-0.066816 0,-0.033408 0,-0.066816 0,-0.1002247 0,-0.022272 -0.011729,-0.08575 0,-0.066816 0.039621,0.063962 0.06903,0.1337118 0.1035458,0.2005677"
       style="fill:none;stroke:#000000;stroke-width:0.26458px;stroke-linecap:butt;stroke-linejoin:miter;stroke-opacity:1" />
    <path
       id="path463"
       d="m 7.0885181,4.2402155 c 0.1316447,-0.099347 0.268604,-0.1920173 0.394934,-0.2980398 0.00805,-0.00676 0,-0.088137 0,-0.1002247 0,-0.033408 -0.014941,-0.070344 0,-0.1002248 0.00498,-0.00996 0.028428,0.00996 0.033408,0 0.025709,-0.051417 -0.018256,-0.1456783 0,-0.2004498 0.016518,-0.049554 0.066817,-0.039145 0.066817,-0.1002247 0,-0.078348 -0.00787,0.015748 0.033408,-0.066816 0.00498,-0.00996 -0.00787,-0.025535 0,-0.033408 0.00787,-0.00787 0.028428,0.00996 0.033408,0 0.00996,-0.01992 0,-0.044544 0,-0.066817 0,-0.011136 0.010041,-0.038225 0,-0.033408 -0.070633,0.033881 -0.1314148,0.08531 -0.1971222,0.1279651"
       style="fill:none;stroke:#000000;stroke-width:0.26458px;stroke-linecap:butt;stroke-linejoin:miter;stroke-opacity:1" />
    <path
       id="path465"
       d="m 7.7441439,2.8784731 c 0.013327,0.042757 -0.00277,0.1415987 0.039983,0.1282711 0.042757,-0.013327 -0.060012,-0.088213 -0.039983,-0.1282711 0.043517,-0.087034 0.1433475,-0.1322323 0.207024,-0.2058115 0.00729,-0.00842 0.0079,-0.04126 0,-0.033408 -0.074786,0.074347 -0.138016,0.159479 -0.207024,0.2392186"
       style="fill:none;stroke:#000000;stroke-width:0.26458px;stroke-linecap:butt;stroke-linejoin:miter;stroke-opacity:1" />
    <path
       id="path467"
       d="M 7.4533715,3.3685673 C 7.4263767,3.1175309 7.6623738,3.228722 7.7507184,3.1403772 c 0.00787,-0.00787 -0.00498,-0.023447 0,-0.033408 0.00704,-0.014086 0.024672,-0.020304 0.033408,-0.033408 0.013814,-0.020719 0.019595,-0.046097 0.033408,-0.066816 0.017473,-0.026207 0.052731,-0.038644 0.066816,-0.066816 0.00498,-0.00996 -0.00787,-0.025535 0,-0.033408 0.00787,-0.00787 0.025535,0.00787 0.033408,0 0.015748,-0.015748 -0.015748,-0.051068 0,-0.066817 0.00787,-0.00787 0.025535,0.00787 0.033408,0 0.00787,-0.00787 -0.00787,-0.025535 0,-0.033408 0.00787,-0.00787 0.043924,-0.00367 0.033408,0 -0.079013,0.027547 -0.1602881,0.048118 -0.2404323,0.072177"
       style="fill:none;stroke:#000000;stroke-width:0.26458px;stroke-linecap:butt;stroke-linejoin:miter;stroke-opacity:1" />
    <path
       id="path469"
       d="m 8.3888031,1.8803785 c 0.1325238,0.030237 0.2630324,0.071319 0.3975716,0.090709 0.011022,0.00159 -0.00996,-0.028428 0,-0.033408 0.01992,-0.00996 0.046896,0.00996 0.066816,0 0.00996,-0.00498 -0.00787,-0.025534 0,-0.033408 0.00787,-0.00787 0.023447,0.00498 0.033408,0 0.039467,-0.019734 0.06337,-0.075655 0.100225,-0.1002248 0.020719,-0.013813 0.049209,-0.0158 0.066816,-0.033408 0.00787,-0.00787 -0.00879,-0.026576 0,-0.033408 0.047978,-0.037279 0.1057362,-0.059886 0.1586046,-0.089829 0.069629,-0.04801 0.1392584,-0.09602 0.2088876,-0.1440296 0,-0.011136 -0.00996,-0.028428 0,-0.033408 0.019921,-0.00996 0.046896,0.00996 0.066816,0 0.00996,-0.00498 0.011136,-0.033408 0,-0.033408 -0.011136,0 0,0.022272 0,0.033408 C 9.433375,1.4143228 9.3788015,1.3586817 9.324228,1.3030407"
       style="fill:none;stroke:#000000;stroke-width:0.26458px;stroke-linecap:butt;stroke-linejoin:miter;stroke-opacity:1" />
    <path
       id="path471"
       d="m 10.560341,1.4908769 c 0.09312,0.4770532 0.336394,0.058919 0.497796,0.11272 0.123848,0.041283 -0.04072,0.033408 0.06682,0.033408 0.02227,0 0.04454,0 0.06682,0 0.01114,0 0.03341,0.011136 0.03341,0 0,-0.073683 -0.05052,0.030998 -0.05192,0.033527"
       style="fill:none;stroke:#000000;stroke-width:0.26458px;stroke-linecap:butt;stroke-linejoin:miter;stroke-opacity:1" />
    <path
       id="path473"
       d="m 11.173267,1.6705319 c 0.106393,0.055641 0.212785,0.1112819 0.319178,0.1669229 0.01114,0 0.02553,-0.00787 0.03341,0 0.0079,0.00787 -0.005,0.023448 0,0.033408 0.01973,0.039467 0.07566,0.06337 0.100225,0.1002248 0.01381,0.020719 0.0158,0.049209 0.03341,0.066817 0.0079,0.00787 0.02553,-0.00787 0.03341,0 0.0079,0.00787 0.0078,0.041368 0,0.033408 -0.05484,-0.056039 -0.098,-0.1224177 -0.146998,-0.1836265"
       style="fill:none;stroke:#000000;stroke-width:0.26458px;stroke-linecap:butt;stroke-linejoin:miter;stroke-opacity:1" />
    <path
       id="path475"
       d="m 11.545902,1.8876861 0.38085,0.5845258"
       style="fill:none;stroke:#000000;stroke-width:0.26458px;stroke-linecap:butt;stroke-linejoin:miter;stroke-opacity:1" />
    <path
       id="path477"
       d="m 11.926752,2.4722119 c -0.133633,0.1002248 -0.267266,0.2004495 -0.400899,0.3006745 -0.01114,0 -0.02553,-0.00787 -0.03341,0 -0.0079,0.00787 0.005,0.023447 0,0.033408 -0.01114,0.022272 -0.07795,0.089088 -0.100225,0.1002247 -0.01,0.00498 -0.02553,-0.00787 -0.03341,0 -0.0079,0.00787 0.005,0.023447 0,0.033408 -0.007,0.014086 -0.02637,0.019322 -0.03341,0.033408 -0.005,0.00996 0.0079,0.025535 0,0.033408 -0.0079,0.00787 -0.02345,-0.00498 -0.03341,0 -0.01409,0.00704 -0.02971,0.048716 -0.03341,0.033408 -0.03437,-0.1421728 -0.04232,-0.2894595 -0.06348,-0.4341893"
       style="fill:none;stroke:#000000;stroke-width:0.26458px;stroke-linecap:butt;stroke-linejoin:miter;stroke-opacity:1" />
    <path
       id="path479"
       d="m 11.195098,2.6059618 c -0.04565,0.1892745 -0.09131,0.3785492 -0.136961,0.5678239 0,0.011136 0.005,0.023447 0,0.033408 -0.007,0.014086 -0.02637,0.019322 -0.03341,0.033408 -0.01387,0.027745 0,0.1019609 0,0.133633 0,0.044544 0,0.089089 0,0.133633 0,0.011136 -0.01114,0.033408 0,0.033408 0.01114,0 0,-0.044544 0,-0.033408 0,0.022272 0.007,0.045687 0,0.066817 -0.0059,0.017827 -0.130572,0.100225 -0.06682,0.100225 0.01114,0 0.009,-0.039953 0,-0.033408 -0.115777,0.084097 -0.220504,0.1824399 -0.330756,0.2736599"
       style="fill:none;stroke:#000000;stroke-width:0.26458px;stroke-linecap:butt;stroke-linejoin:miter;stroke-opacity:1" />
    <path
       id="path481"
       d="m 7.0858805,5.2786248 c 0.043435,-0.022312 0.096231,-0.031959 0.1303056,-0.066935 0.012959,-0.013303 0,-0.1403935 0,-0.1670415 0,-0.011136 0.00787,-0.025535 0,-0.033408 -0.00787,-0.00787 -0.025535,0.00787 -0.033408,0 -0.021397,-0.021397 0.021166,-0.2795079 0,-0.3006743 -0.00787,-0.00787 -0.025535,0.00787 -0.033408,0 -0.015748,-0.015748 0.015748,-0.051068 0,-0.066816 -0.00787,-0.00787 -0.025535,0.00787 -0.033408,0 -0.023624,-0.023624 0.010565,-0.068531 0,-0.100225 -0.00498,-0.014941 -0.028428,-0.018468 -0.033408,-0.033408 -0.0049,-0.0147 -0.010371,-0.1463 0,-0.1670412 0.035277,-0.070555 0.031539,0.00374 0.066816,-0.066816 0.00498,-0.00996 -0.00787,-0.025535 0,-0.033408 0.00787,-0.00787 0.044534,4.763e-4 0.033408,0 -0.031403,-0.00135 -0.06284,-0.00175 -0.09426,-0.00265"
       style="fill:none;stroke:#000000;stroke-width:0.26458px;stroke-linecap:butt;stroke-linejoin:miter;stroke-opacity:1" />
    <path
       id="path483"
       d="M 7.0858723,3.9200841 7.4533715,3.3685673"
       style="fill:none;stroke:#000000;stroke-width:0.26458px;stroke-linecap:butt;stroke-linejoin:miter;stroke-opacity:1" />
    <path
       id="path485"
       d="m 7.4533715,3.3685673 c 0.1937951,0.031943 0.1591941,-0.2927466 0.2973469,-0.3618231 0.084155,-0.042077 -0.028911,0.1268878 0.1002248,-0.066816 0.00618,-0.00927 -0.00787,-0.025535 0,-0.033408 0.00787,-0.00787 0.023447,0.00498 0.033408,0 0.014086,-0.00704 0.019322,-0.026365 0.033408,-0.033408 0.00996,-0.00498 0.025535,0.00787 0.033408,0 0.00787,-0.00787 -0.00498,-0.023447 0,-0.033408 0.012168,-0.024333 0.092824,-0.066816 0.033408,-0.066816 -0.011136,0 0.010197,0.02893 0,0.033408 -0.076615,0.033645 -0.1602881,0.048118 -0.2404323,0.072177"
       style="fill:none;stroke:#000000;stroke-width:0.26458px;stroke-linecap:butt;stroke-linejoin:miter;stroke-opacity:1" />
    <path
       id="path487"
       d="m 7.7441439,2.8784731 c 0.080144,-0.035196 0.1704599,-0.052997 0.2404323,-0.1055867 0.028151,-0.021158 0.017661,-0.068727 0.033408,-0.1002248 0.014086,-0.028172 0.038644,-0.052731 0.066816,-0.066817 0.00996,-0.00498 0.023447,0.00498 0.033408,0 0.1390371,-0.069519 -0.035715,0.00231 0.033408,-0.066817 0.00787,-0.00787 0.025535,0.00787 0.033408,0 0.00787,-0.00787 0,-0.022272 0,-0.033408 0.022272,-0.011136 0.049209,-0.015801 0.066816,-0.033408 0.1215933,-0.1215934 -0.035518,-0.023474 0.066817,-0.1002248 0.044544,-0.033408 0.1087321,-0.050423 0.133633,-0.1002248 0,-0.089089 -0.011136,0.011136 0.033408,-0.033408 0.01089,-0.010889 -0.023016,-0.1144498 0.033409,-0.1002248 0.081726,0.020604 0.1547259,0.066895 0.2320888,0.100343"
       style="fill:none;stroke:#000000;stroke-width:0.26458px;stroke-linecap:butt;stroke-linejoin:miter;stroke-opacity:1" />
    <path
       id="path489"
       d="m 8.3888031,1.8803785 c 0.8384357,-0.021908 0.1195774,0.061592 0.4643881,-0.076332 0.02068,-0.00827 0.045687,0.00704 0.066816,0 0.014941,-0.00498 0.019322,-0.026365 0.033408,-0.033408 0.01992,-0.00996 0.046896,0.00996 0.066817,0 0.014086,-0.00704 0.019322,-0.026365 0.033408,-0.033408 0.020172,-0.010085 0.084781,0.015443 0.1002247,0 0.00787,-0.00787 -0.00787,-0.025534 0,-0.033408 0.00787,-0.00787 0.025535,0.00787 0.033408,0 0.00787,-0.00787 -0.00787,-0.025534 0,-0.033408 0.00787,-0.00787 0.023447,0.00498 0.033408,0 0.028172,-0.014086 0.036935,-0.056856 0.066816,-0.066816 0.021129,-0.00704 0.048285,0.012354 0.066816,0 0.020719,-0.013813 0.019595,-0.046098 0.033408,-0.066817 0.00874,-0.013104 0.022272,-0.022272 0.033408,-0.033408"
       style="fill:none;stroke:#000000;stroke-width:0.26458px;stroke-linecap:butt;stroke-linejoin:miter;stroke-opacity:1" />
    <path
       id="path491"
       d="m 20.399076,2.6226673 c -0.355483,-0.072322 -0.180447,0.2438177 -0.287298,0.3506686 -0.01761,0.017608 -0.04921,0.015801 -0.06682,0.033408 -0.222721,0.2227218 0.167042,-0.077953 -0.100224,0.1002247 -0.06618,-0.00333 -0.0158,0.049209 -0.03341,0.066817 -0.0079,0.00787 -0.02553,-0.00787 -0.03341,0 -0.0079,0.00787 -0.0073,0.041804 0,0.033408 0.05139,-0.058977 0.09131,-0.12705 0.13696,-0.1905748"
       style="fill:none;stroke:#000000;stroke-width:0.26458px;stroke-linecap:butt;stroke-linejoin:miter;stroke-opacity:1" />
    <path
       id="path493"
       d="m 19.613981,3.1739024 c 0.01003,0.2004106 0.02005,0.4008212 0.03008,0.6012321 -0.01114,0.011136 -0.02637,0.019322 -0.03341,0.033408 -0.01,0.01992 0.01,0.046896 0,0.066817 -0.007,0.014086 -0.02637,0.019322 -0.03341,0.033408 -0.005,0.00996 0.0079,0.025535 0,0.033408 -0.0079,0.00787 -0.02553,-0.00787 -0.03341,0 -0.0079,0.00787 0.0079,0.025535 0,0.033408 -0.0079,0.00787 -0.03568,-0.010901 -0.03341,0 0.03505,0.1681649 0.09131,0.3312025 0.136959,0.4968039"
       style="fill:none;stroke:#000000;stroke-width:0.26458px;stroke-linecap:butt;stroke-linejoin:miter;stroke-opacity:1" />
    <path
       id="path495"
       d="M 19.402002,4.7259469 C 19.315647,4.6651392 19.224077,4.611127 19.142937,4.543524 c -0.03297,-0.02747 0.02711,-0.087536 0.03341,-0.1002248 0.01,-0.01992 -0.01,-0.046896 0,-0.066816 0.06325,-0.1265049 0.267946,0.1055773 0.287296,0.1170473 -0.02055,0.077472 -0.02887,0.1592733 -0.06164,0.2324164 -0.03047,0.068008 -0.08833,0.1204394 -0.125431,0.1850687 -0.01017,0.017717 0,0.1225315 0,0.133633 0,0.011136 -0.0041,0.043771 0,0.033408 0.04563,-0.1159384 0.08362,-0.2347397 0.125432,-0.3521095"
       style="fill:none;stroke:#000000;stroke-width:0.26458px;stroke-linecap:butt;stroke-linejoin:miter;stroke-opacity:1" />
    <path
       id="path497"
       d="M 20.9002,2.6226673 20.64631,1.9042713"
       style="fill:none;stroke:#000000;stroke-width:0.26458px;stroke-linecap:butt;stroke-linejoin:miter;stroke-opacity:1" />
    <path
       id="path499"
       d="M 21.247659,1.6035969 21.581742,1.4365556"
       style="fill:none;stroke:#000000;stroke-width:0.26458px;stroke-linecap:butt;stroke-linejoin:miter;stroke-opacity:1" />
    <path
       id="path501"
       d="m 23.154361,1.3030407 0.364742,0.367491"
       style="fill:none;stroke:#000000;stroke-width:0.26458px;stroke-linecap:butt;stroke-linejoin:miter;stroke-opacity:1" />
    <path
       id="path503"
       d="m 24.875783,2.6280348 0.01671,0.5041086"
       style="fill:none;stroke:#000000;stroke-width:0.26458px;stroke-linecap:butt;stroke-linejoin:miter;stroke-opacity:1" />
    <path
       id="path505"
       d="M 25.826018,4.8498708 25.425855,4.4811532"
       style="fill:none;stroke:#000000;stroke-width:0.26458px;stroke-linecap:butt;stroke-linejoin:miter;stroke-opacity:1" />
    <path
       id="path507"
       d="m 25.826018,4.8498708 0.01861,0.8756132"
       style="fill:none;stroke:#000000;stroke-width:0.26458px;stroke-linecap:butt;stroke-linejoin:miter;stroke-opacity:1" />
    <path
       id="path513"
       d="m 17.409036,7.7611926 0.04888,0.5408803"
       style="fill:none;stroke:#000000;stroke-width:0.26458px;stroke-linecap:butt;stroke-linejoin:miter;stroke-opacity:1" />
    <path
       id="path515"
       d="m 22.320051,7.6440755 -0.4009,0.7248142"
       style="fill:none;stroke:#000000;stroke-width:0.26458px;stroke-linecap:butt;stroke-linejoin:miter;stroke-opacity:1" />
    <path
       id="path517"
       d="M 20.9002,2.6226673 21.701998,3.198385"
       style="fill:none;stroke:#000000;stroke-width:0.26458px;stroke-linecap:butt;stroke-linejoin:miter;stroke-opacity:1" />
    <path
       id="path519"
       d="m 21.701998,3.198385 0.350787,0.7105007"
       style="fill:none;stroke:#000000;stroke-width:0.26458px;stroke-linecap:butt;stroke-linejoin:miter;stroke-opacity:1" />
    <path
       id="path521"
       d="m 22.052785,3.9088857 0.133632,0.8877056 1e-6,0"
       style="fill:none;stroke:#000000;stroke-width:0.26458px;stroke-linecap:butt;stroke-linejoin:miter;stroke-opacity:1" />
  </g>
</svg>
